<svg xmlns="http://www.w3.org/2000/svg" version="1.1" xmlns:xlink="http://www.w3.org/1999/xlink" xmlns:svgjs="http://svgjs.dev/svgjs" width="1000" height="146" viewBox="0 0 1000 146"><g transform="matrix(1,0,0,1,-0.6060606060606233,-0.6038932392060445)"><svg viewBox="0 0 396 58" data-background-color="#000000" preserveAspectRatio="xMidYMid meet" height="146" width="1000" xmlns="http://www.w3.org/2000/svg" xmlns:xlink="http://www.w3.org/1999/xlink"><g id="tight-bounds" transform="matrix(1,0,0,1,0.2400000000000091,0.23990279365719402)"><svg viewBox="0 0 395.52 57.52004966330715" height="57.52004966330715" width="395.52"><g><svg viewBox="0 0 480.1989889295014 69.83482426045408" height="57.52004966330715" width="395.52"><g transform="matrix(1,0,0,1,84.67898892950141,19.197723694037705)"><svg viewBox="0 0 395.52 31.43937687237867" height="31.43937687237867" width="395.52"><g id="textblocktransform"><svg viewBox="0 0 395.52 31.43937687237867" height="31.43937687237867" width="395.52" id="textblock"><g><svg viewBox="0 0 395.52 31.43937687237867" height="31.43937687237867" width="395.52"><g transform="matrix(1,0,0,1,0,0)"><svg width="395.52" viewBox="2.76 -38.11 487.44 38.87" height="31.43937687237867" data-palette-color="#dd3333"><g class="wordmark-text-0" data-fill-palette-color="primary" id="text-0"><path d="M2.76-29.64L2.76-37.01 32.2-37.01 32.2-24.39 24.24-24.39 24.24-29.64 14.75-29.64 14.75-22.34 22.09-22.34 22.09-15.26 14.75-15.26 14.75-6.69 24.24-6.69 24.24-13.26 32.2-13.26 32.2 0 2.76 0 2.76-6.69 6.64-6.69 6.64-29.64 2.76-29.64ZM54.25-24.44L54.25-26.59Q54.12-27.44 53.65-28.2 53.17-28.96 52.43-29.5 51.68-30.05 50.74-30.37 49.8-30.69 48.78-30.69L48.78-30.69Q47.85-30.69 47.04-30.49 46.24-30.3 45.64-29.9 45.04-29.49 44.69-28.86 44.33-28.22 44.33-27.34L44.33-27.34Q44.33-26.25 44.81-25.6 45.29-24.95 46.03-24.54 46.77-24.12 47.68-23.88 48.58-23.63 49.44-23.34L49.44-23.34 56.15-21.09Q57.54-20.61 58.76-19.75 59.98-18.9 60.87-17.68 61.77-16.46 62.28-14.87 62.79-13.28 62.79-11.3L62.79-11.3Q62.79-8.62 61.8-6.4 60.81-4.17 59.03-2.59 57.25-1 54.76-0.12 52.27 0.76 49.24 0.76L49.24 0.76Q47.12 0.76 45.22 0.28 43.33-0.2 41.77-1.1 40.21-2 39.04-3.26 37.86-4.52 37.2-6.1L37.2-6.1 34.69-6.1 34.69-13.45 43.53-13.45 43.53-11.94Q43.53-10.84 43.88-9.91 44.24-8.98 44.94-8.3 45.65-7.62 46.73-7.24 47.8-6.86 49.24-6.86L49.24-6.86Q51.44-6.86 52.59-7.87 53.73-8.89 53.73-10.69L53.73-10.69Q53.73-11.62 53.33-12.24 52.93-12.87 52.29-13.29 51.66-13.72 50.88-14.01 50.1-14.31 49.34-14.55L49.34-14.55 43.75-16.36Q42.16-16.85 40.68-17.72 39.21-18.6 38.07-19.92 36.94-21.24 36.26-23.01 35.59-24.78 35.59-27.05L35.59-27.05Q35.59-29.69 36.57-31.75 37.55-33.81 39.3-35.23 41.06-36.65 43.48-37.38 45.9-38.11 48.78-38.11L48.78-38.11Q51.05-38.11 52.98-37.59 54.9-37.06 56.43-36.18 57.96-35.3 59.02-34.17 60.08-33.03 60.64-31.81L60.64-31.81 63.08-31.81 63.08-24.44 54.25-24.44ZM98.63-25.76L91.08-25.76Q89.72-27.71 88.62-28.53 87.52-29.35 86.25-29.7 84.98-30.05 83.59-30.05L83.59-30.05Q81.54-30.05 79.78-29.14 78.02-28.22 76.74-26.65 75.46-25.07 74.73-22.99 73.99-20.9 73.99-18.55L73.99-18.55Q73.99-16.19 74.71-14.1 75.43-12.01 76.7-10.45 77.97-8.89 79.73-7.97 81.49-7.06 83.59-7.06L83.59-7.06Q85.05-7.06 86.32-7.53 87.59-8.01 88.63-8.79 89.67-9.57 90.45-10.58 91.23-11.6 91.67-12.7L91.67-12.7 99.53-10.5Q98.77-8.11 97.31-6.07 95.84-4.03 93.78-2.54 91.72-1.05 89.14-0.2 86.57 0.66 83.59 0.66L83.59 0.66Q81.07 0.66 78.78-0.02 76.48-0.71 74.49-1.95 72.5-3.2 70.88-4.96 69.26-6.71 68.11-8.85 66.96-10.99 66.33-13.44 65.69-15.89 65.69-18.55L65.69-18.55Q65.69-22.53 67.08-26.01 68.48-29.49 70.89-32.09 73.31-34.69 76.57-36.19 79.83-37.7 83.59-37.7L83.59-37.7Q86.59-37.7 88.64-36.95 90.69-36.21 93.16-34.01L93.16-34.01 98.63-34.01 98.63-25.76ZM123.82 0L123.82-6.69 127.51-6.69 125.85-12.01 114.47-12.01 112.81-6.69 116.72-6.69 116.72 0 102.68 0 102.68-6.69 105.44-6.69 115.52-37.01 125.31-37.01 135.17-6.69 137.86-6.69 137.86 0 123.82 0ZM120.11-30.3L116.4-18.26 123.87-18.26 120.11-30.3ZM141.18-30.3L141.18-37.01 158.27-37.01Q161.12-37.01 163.52-36.12 165.91-35.23 167.64-33.72 169.37-32.2 170.35-30.22 171.33-28.25 171.33-26.1L171.33-26.1Q171.33-23.51 170.56-21.25 169.79-18.99 168.18-17.33 166.57-15.67 164.1-14.71 161.64-13.75 158.27-13.75L158.27-13.75 153.12-13.75 153.12-6.69 156.51-6.69 156.51 0 141.18 0 141.18-6.69 145.01-6.69 145.01-30.3 141.18-30.3ZM156.46-30.3L153.12-30.3 153.12-20.36 156.46-20.36Q159.24-20.36 160.88-21.53 162.51-22.71 162.51-25.24L162.51-25.24Q162.51-27.61 160.98-28.96 159.44-30.3 156.46-30.3L156.46-30.3ZM175.35-29.64L175.35-37.01 204.8-37.01 204.8-24.39 196.84-24.39 196.84-29.64 187.34-29.64 187.34-22.34 194.69-22.34 194.69-15.26 187.34-15.26 187.34-6.69 196.84-6.69 196.84-13.26 204.8-13.26 204.8 0 175.35 0 175.35-6.69 179.24-6.69 179.24-29.64 175.35-29.64Z" fill="#dd3333" data-fill-palette-color="primary"></path><path d="M216.81-30.3L216.81-37.01 231.02-37.01Q233.56-37.01 235.89-36.35 238.22-35.69 240.23-34.5 242.25-33.3 243.9-31.63 245.54-29.96 246.72-27.91 247.89-25.85 248.52-23.49 249.16-21.12 249.16-18.55L249.16-18.55Q249.16-15.99 248.52-13.62 247.89-11.25 246.72-9.19 245.54-7.13 243.9-5.43 242.25-3.74 240.23-2.53 238.22-1.32 235.89-0.66 233.56 0 231.02 0L231.02 0 216.81 0 216.81-6.69 219.76-6.69 219.76-30.3 216.81-30.3ZM230.97-30.3L227.87-30.3 227.87-6.69 230.97-6.69Q232.95-6.69 234.7-7.62 236.46-8.54 237.76-10.14 239.05-11.74 239.81-13.9 240.56-16.06 240.56-18.55L240.56-18.55Q240.56-21.02 239.81-23.17 239.05-25.32 237.76-26.9 236.46-28.49 234.7-29.39 232.95-30.3 230.97-30.3L230.97-30.3ZM253.4-30.32L253.4-37.01 269.25-37.01 269.25-30.32 265.34-30.32 265.34-6.69 269.25-6.69 269.25 0 253.4 0 253.4-6.69 257.24-6.69 257.24-30.32 253.4-30.32ZM273.18-30.3L273.18-37.01 292.76-37.01Q295.61-37.01 297.86-36.16 300.11-35.3 301.64-33.87 303.18-32.45 304-30.55 304.82-28.66 304.82-26.61L304.82-26.61Q304.82-24.73 304.41-23.32 304.01-21.9 303.24-20.8 302.47-19.7 301.35-18.86 300.23-18.02 298.79-17.33L298.79-17.33Q300.03-16.7 300.98-15.39 301.94-14.09 302.42-12.01L302.42-12.01 303.67-7.2 306.72-7.2 306.77 0 296.03 0 294.56-8.79Q294.34-10.35 293.89-11.49 293.44-12.62 292.68-13.34 291.93-14.06 290.84-14.4 289.75-14.75 288.26-14.75L288.26-14.75 285.11-14.75 285.11-6.69 288.51-6.69 288.51 0 273.18 0 273.18-6.69 277.01-6.69 277.01-30.3 273.18-30.3ZM289.97-30.3L285.11-30.3 285.11-21.34 289.97-21.34Q291.36-21.34 292.48-21.59 293.59-21.85 294.38-22.4 295.17-22.95 295.6-23.78 296.03-24.61 296.03-25.76L296.03-25.76Q296.03-27.91 294.49-29.1 292.95-30.3 289.97-30.3L289.97-30.3ZM310.53-29.64L310.53-37.01 339.97-37.01 339.97-24.39 332.01-24.39 332.01-29.64 322.51-29.64 322.51-22.34 329.86-22.34 329.86-15.26 322.51-15.26 322.51-6.69 332.01-6.69 332.01-13.26 339.97-13.26 339.97 0 310.53 0 310.53-6.69 314.41-6.69 314.41-29.64 310.53-29.64ZM376-25.76L368.46-25.76Q367.09-27.71 365.99-28.53 364.89-29.35 363.63-29.7 362.36-30.05 360.96-30.05L360.96-30.05Q358.91-30.05 357.16-29.14 355.4-28.22 354.12-26.65 352.83-25.07 352.1-22.99 351.37-20.9 351.37-18.55L351.37-18.55Q351.37-16.19 352.09-14.1 352.81-12.01 354.08-10.45 355.35-8.89 357.11-7.97 358.86-7.06 360.96-7.06L360.96-7.06Q362.43-7.06 363.7-7.53 364.97-8.01 366.01-8.79 367.04-9.57 367.82-10.58 368.61-11.6 369.05-12.7L369.05-12.7 376.91-10.5Q376.15-8.11 374.68-6.07 373.22-4.03 371.16-2.54 369.09-1.05 366.52-0.2 363.94 0.66 360.96 0.66L360.96 0.66Q358.45 0.66 356.15-0.02 353.86-0.71 351.87-1.95 349.88-3.2 348.26-4.96 346.63-6.71 345.49-8.85 344.34-10.99 343.7-13.44 343.07-15.89 343.07-18.55L343.07-18.55Q343.07-22.53 344.46-26.01 345.85-29.49 348.27-32.09 350.69-34.69 353.95-36.19 357.2-37.7 360.96-37.7L360.96-37.7Q363.97-37.7 366.02-36.95 368.07-36.21 370.53-34.01L370.53-34.01 376-34.01 376-25.76ZM388.5 0L388.5-6.69 392.33-6.69 392.33-30.54 387.84-30.54 387.84-25.76 379.88-25.76 379.88-37.01 413.55-37.01 413.55-25.76 405.54-25.76 405.54-30.54 400.44-30.54 400.44-6.69 404.35-6.69 404.35 0 388.5 0ZM433.81 0.66L433.81 0.66Q431.3 0.66 429-0.02 426.71-0.71 424.72-1.95 422.73-3.2 421.1-4.94 419.48-6.69 418.33-8.83 417.18-10.96 416.55-13.4 415.92-15.84 415.92-18.51L415.92-18.51Q415.92-21.17 416.55-23.62 417.18-26.07 418.33-28.21 419.48-30.35 421.1-32.09 422.73-33.84 424.72-35.08 426.71-36.33 429-37.01 431.3-37.7 433.81-37.7L433.81-37.7Q436.33-37.7 438.63-37.01 440.94-36.33 442.93-35.08 444.92-33.84 446.54-32.09 448.17-30.35 449.33-28.21 450.49-26.07 451.12-23.62 451.76-21.17 451.76-18.51L451.76-18.51Q451.76-15.87 451.12-13.42 450.49-10.96 449.33-8.83 448.17-6.69 446.54-4.94 444.92-3.2 442.93-1.95 440.94-0.71 438.63-0.02 436.33 0.66 433.81 0.66ZM433.81-7.01L433.81-7.01Q435.93-7.01 437.7-7.92 439.47-8.84 440.74-10.41 442.01-11.99 442.71-14.07 443.41-16.16 443.41-18.51L443.41-18.51Q443.41-20.87 442.7-22.97 441.99-25.07 440.71-26.65 439.43-28.22 437.67-29.14 435.91-30.05 433.81-30.05L433.81-30.05Q431.71-30.05 429.95-29.14 428.2-28.22 426.93-26.65 425.66-25.07 424.94-22.97 424.22-20.87 424.22-18.51L424.22-18.51Q424.22-16.16 424.94-14.07 425.66-11.99 426.93-10.41 428.2-8.84 429.95-7.92 431.71-7.01 433.81-7.01ZM456.61-30.3L456.61-37.01 476.19-37.01Q479.05-37.01 481.29-36.16 483.54-35.3 485.08-33.87 486.62-32.45 487.43-30.55 488.25-28.66 488.25-26.61L488.25-26.61Q488.25-24.73 487.85-23.32 487.45-21.9 486.68-20.8 485.91-19.7 484.78-18.86 483.66-18.02 482.22-17.33L482.22-17.33Q483.47-16.7 484.42-15.39 485.37-14.09 485.86-12.01L485.86-12.01 487.1-7.2 490.16-7.2 490.2 0 479.46 0 478-8.79Q477.78-10.35 477.33-11.49 476.87-12.62 476.12-13.34 475.36-14.06 474.27-14.4 473.19-14.75 471.7-14.75L471.7-14.75 468.55-14.75 468.55-6.69 471.94-6.69 471.94 0 456.61 0 456.61-6.69 460.44-6.69 460.44-30.3 456.61-30.3ZM473.41-30.3L468.55-30.3 468.55-21.34 473.41-21.34Q474.8-21.34 475.91-21.59 477.02-21.85 477.81-22.4 478.61-22.95 479.04-23.78 479.46-24.61 479.46-25.76L479.46-25.76Q479.46-27.91 477.92-29.1 476.39-30.3 473.41-30.3L473.41-30.3Z" fill="#ffffff" data-fill-palette-color="secondary"></path></g></svg></g></svg></g></svg></g></svg></g><g><svg viewBox="0 0 69.83482426045408 69.83482426045408" height="69.83482426045408" width="69.83482426045408"><g><svg></svg></g><g id="icon-0"><svg viewBox="0 0 69.83482426045408 69.83482426045408" height="69.83482426045408" width="69.83482426045408"><g><path d="M0 34.917c0-19.284 15.633-34.917 34.917-34.917 19.284 0 34.917 15.633 34.918 34.917 0 19.284-15.633 34.917-34.918 34.918-19.284 0-34.917-15.633-34.917-34.918zM34.917 67c17.718 0 32.082-14.364 32.083-32.083 0-17.718-14.364-32.082-32.083-32.082-17.718 0-32.082 14.364-32.082 32.082 0 17.718 14.364 32.082 32.082 32.083z" data-fill-palette-color="accent" fill="#ffffff" stroke="transparent"></path></g><g transform="matrix(1,0,0,1,23.058104357084105,20.873841055210427)"><svg viewBox="0 0 23.71861554628587 28.087142150033227" height="28.087142150033227" width="23.71861554628587"><g><svg xmlns="http://www.w3.org/2000/svg" xmlns:xlink="http://www.w3.org/1999/xlink" version="1.1" x="0" y="0" viewBox="11.813259740036843 7.156 73.33674025996316 86.844" enable-background="new 0 0 100 100" xml:space="preserve" height="28.087142150033227" width="23.71861554628587" class="icon-z$-0" data-fill-palette-color="accent" id="z$-0"><path d="M60.255 24.091c1.592-4.632-2.171-8.685-6.803-9.264-5.79 0.145-9.697 4.342-6.947 10.711C50.412 31.762 58.662 30.17 60.255 24.091L60.255 24.091zM84.86 94H73.281V54.052c-6.658 0.145-10.565-0.289-11.869-1.157-1.302-0.869-2.46-1.883-3.618-3.04-2.315-2.315-3.763-4.342-6.224-6.658-1.303 5.501-2.315 9.119-2.75 10.855-0.724 3.474-1.447 4.777 0.29 9.553l2.46 6.224 4.343 9.264c2.171 4.486 3.618 7.526 4.052 9.264 0.435 1.736 0 3.039-1.447 3.907-1.303 0.869-2.895 0.869-4.486 0-1.592-0.868-3.908-4.197-6.948-10.132l-6.368-13.026c-1.302-2.75-1.881-4.486-2.026-5.21-0.145-0.724-0.579 5.065-1.592 17.079-0.724 2.171-2.895 3.328-6.369 3.474-11.435 0.724-17.514 0.435-18.237-0.869-0.724-1.302-0.869-2.75-0.434-4.342 0.579-1.592 5.79-2.75 15.632-3.618 0.724-11.435 2.316-19.974 4.487-25.33 2.171-5.354 3.474-8.394 3.763-8.828h-5.645c-1.013 0.289-2.46 2.171-4.342 5.645s-4.053 4.487-6.513 3.04c-1.592-1.304-1.447-3.764 0.579-7.237 2.027-3.474 4.342-6.224 6.803-8.25 2.461-2.171 7.092-3.185 13.895-3.185 2.75 0 5.066-0.289 9.697 0.724 2.461 0.435 4.198 1.303 5.355 2.605 1.303 1.303 2.895 3.329 5.066 6.369 2.171 2.895 3.763 4.487 4.486 4.776h7.961V7.156H85.15L84.86 94z" fill="#ffffff" data-fill-palette-color="accent"></path></svg></g></svg></g></svg></g></svg></g></svg></g><defs></defs></svg><rect width="395.52" height="57.52004966330715" fill="none" stroke="none" visibility="hidden"></rect></g></svg></g></svg>